 <svg  version="1.0" xmlns="http://www.w3.org/2000/svg"  width="393.000000pt" height="95.000000pt" viewBox="0 0 393.000000 95.000000"  preserveAspectRatio="xMidYMid meet">  <g transform="translate(0.000000,95.000000) scale(0.050000,-0.050000)" fill="#8a8a8a" stroke="none"> <path d="M300 1310 c0 -8 230 -649 271 -755 8 -21 34 -35 67 -35 52 0 61 16 198 376 164 427 164 429 90 420 -51 -6 -61 -26 -165 -321 -61 -173 -115 -315 -121 -315 -5 0 -59 144 -118 320 -106 313 -110 320 -165 320 -31 0 -57 -4 -57 -10z"/> <path d="M1347 1298 c-192 -55 -312 -371 -215 -564 195 -386 735 -258 737 175 2 295 -236 472 -522 389z m275 -123 c98 -66 142 -162 132 -291 -27 -377 -540 -355 -540 23 0 248 221 393 408 268z"/> <path d="M2040 1305 c0 -8 54 -95 119 -194 65 -98 115 -184 111 -191 -4 -6 -62 -92 -129 -190 -138 -203 -141 -210 -66 -210 48 0 70 23 155 160 120 191 108 189 198 35 112 -190 121 -199 190 -191 l63 6 -139 200 -138 200 128 185 c149 215 147 209 65 201 -55 -5 -76 -26 -151 -146 -109 -176 -100 -176 -201 1 -76 133 -92 149 -145 149 -33 0 -60 -7 -60 -15z"/> <path d="M3280 920 l0 -400 63 0 63 0 -11 160 -11 160 113 1 c228 2 357 105 336 267 -20 152 -133 211 -408 212 l-145 0 0 -400z m366 277 c166 -87 73 -257 -140 -257 l-126 0 0 127 c0 69 6 132 13 140 22 22 206 15 253 -10z"/> <path d="M4316 1301 c-371 -119 -333 -707 50 -778 269 -51 474 122 474 397 0 284 -253 468 -524 381z m278 -120 c126 -77 177 -323 91 -438 -181 -242 -510 -128 -508 176 1 181 110 301 273 301 44 0 109 -18 144 -39z"/> <path d="M5140 923 l0 -403 58 0 58 0 -11 157 -10 157 154 10 c241 16 358 147 285 319 -47 113 -104 139 -333 152 l-201 11 0 -403z m387 256 c129 -102 31 -239 -170 -239 l-117 0 0 140 0 140 117 0 c89 0 131 -10 170 -41z"/> <path d="M5959 1305 c-11 -114 9 -621 26 -657 57 -127 311 -183 429 -96 108 79 126 148 126 473 l0 295 -60 0 -60 0 0 -298 c0 -386 -30 -442 -215 -401 -128 29 -134 46 -141 390 l-7 309 -48 0 c-27 0 -50 -7 -50 -15z"/> <path d="M6840 921 l0 -402 205 5 c195 6 205 8 211 51 7 44 1 45 -157 45 l-163 0 7 345 7 345 -55 6 -55 7 0 -402z"/> <path d="M7440 921 l0 -401 55 0 55 0 -2 395 -3 395 -52 6 -53 7 0 -402z"/> </g> </svg> 