<?xml version="1.0" standalone="no"?>
<!DOCTYPE svg PUBLIC "-//W3C//DTD SVG 20010904//EN"
 "http://www.w3.org/TR/2001/REC-SVG-20010904/DTD/svg10.dtd">
<svg version="1.0" xmlns="http://www.w3.org/2000/svg"
 width="300.000000pt" height="193.000000pt" viewBox="0 0 300.000000 193.000000"
 preserveAspectRatio="xMidYMid meet">
<metadata>
Created by potrace 1.10, written by Peter Selinger 2001-2011
</metadata>
<g transform="translate(0.000000,193.000000) scale(0.100000,-0.100000)"
fill="#797777" stroke="none">
<path d="M813 1692 c-13 -2 -23 -6 -23 -8 0 -3 24 -49 54 -103 58 -105 64
-117 152 -323 32 -75 59 -136 60 -135 1 1 61 119 133 262 127 250 131 260 113
277 -17 18 -19 16 -52 -54 -18 -40 -66 -140 -107 -223 -40 -82 -73 -156 -73
-162 0 -34 -18 -5 -44 70 -22 64 -180 399 -189 402 -1 0 -12 -1 -24 -3z"/>
<path d="M1613 1659 c-85 -16 -177 -87 -208 -163 -90 -219 83 -418 305 -351
78 24 122 62 160 139 69 140 28 297 -93 354 -50 24 -106 31 -164 21z m110 -41
c75 -23 137 -114 137 -203 0 -87 -61 -194 -131 -231 -36 -18 -152 -18 -187 0
-169 89 -139 375 45 433 50 15 87 16 136 1z"/>
<path d="M2330 1543 c-87 -104 -96 -113 -108 -95 -22 34 -155 197 -162 200 -4
1 -13 -4 -20 -12 -13 -16 3 -40 122 -175 l47 -54 -105 -123 c-97 -114 -104
-125 -89 -140 9 -9 17 -15 19 -13 1 2 38 48 82 102 43 54 86 109 94 123 8 13
17 24 20 23 3 0 49 -56 104 -125 93 -118 100 -124 117 -108 17 15 15 19 -44
88 -34 39 -81 94 -105 123 l-42 51 52 59 c29 32 55 60 58 63 94 99 92 96 73
112 -17 14 -25 8 -113 -99z"/>
<path d="M2232 703 c-5 -10 -13 -39 -16 -66 -11 -76 -74 -287 -103 -345 -39
-77 -67 -102 -106 -96 -81 15 -111 96 -171 455 -6 32 -9 36 -31 31 -14 -2 -25
-5 -25 -6 0 -22 46 -246 65 -316 38 -142 88 -200 171 -200 32 0 44 7 84 50 29
31 55 74 72 117 25 65 108 359 108 382 0 18 -38 13 -48 -6z"/>
<path d="M876 674 c-65 -20 -146 -101 -169 -168 -34 -99 -18 -203 41 -268 47
-52 107 -78 182 -78 155 0 265 102 278 257 7 91 -12 148 -68 204 -67 67 -157
85 -264 53z m209 -58 c74 -57 101 -190 58 -287 -59 -132 -229 -180 -331 -94
-74 64 -97 181 -53 280 44 100 105 137 217 133 60 -3 77 -8 109 -32z"/>
<path d="M305 426 l0 -256 23 0 c23 0 23 1 20 115 l-3 116 25 5 c101 22 175
61 198 104 14 28 10 84 -9 106 -15 19 -119 50 -194 59 l-60 6 0 -255z m169
192 c61 -31 75 -86 34 -125 -19 -18 -122 -53 -154 -53 -5 0 -8 46 -6 101 l3
101 51 -6 c28 -4 61 -12 72 -18z"/>
<path d="M1385 426 l0 -256 25 0 25 0 0 117 0 116 57 13 c73 17 133 48 153 78
25 37 16 104 -15 128 -30 22 -111 45 -190 54 l-55 6 0 -256z m186 188 c56 -29
64 -97 14 -130 -19 -13 -119 -42 -147 -44 -5 0 -8 46 -8 101 l0 102 56 -7 c31
-3 69 -13 85 -22z"/>
<path d="M2438 424 l-3 -256 55 6 c30 3 85 8 123 12 57 5 67 9 67 26 0 20 7
21 -124 -2 -33 -5 -64 -10 -69 -10 -7 0 -8 87 -3 240 l7 240 -25 0 -25 0 -3
-256z"/>
<path d="M2820 425 l0 -255 23 0 24 0 -1 255 0 255 -23 0 -23 0 0 -255z"/>
</g>
</svg>
